<?xml version="1.0" ?><svg id="Layer_1" style="enable-background:new 0 0 1024 1024;" version="1.1" viewBox="0 0 1024 1024" xml:space="preserve" xmlns="http://www.w3.org/2000/svg" xmlns:xlink="http://www.w3.org/1999/xlink"><style type="text/css">
	.st0{fill:none;stroke:#000000;stroke-width:60;stroke-miterlimit:10;}
</style><g id="XMLID_403_"><path class="st0" d="M885.9,630.4c0,0.1-0.1,0.2-0.1,0.3c-18.3,58.1-50.5,112.8-96.6,158.9   c-76.3,76.3-176.1,114.5-276.1,114.8c-0.8,0-1.5,0-2.2,0c-100-0.3-199.8-38.6-276.1-114.8c-46.1-46.1-78.3-100.8-96.6-158.9   c0-0.1-0.1-0.2-0.1-0.3c-7.2-22.8-12.2-46-15.1-69.5c-3.1-24.8-3.8-49.7-2.1-74.6c0.1-1.3,0.2-2.5,0.3-3.7   c0.6-7.4,1.4-14.9,2.3-22.3c1-7.4,2.2-14.8,3.6-22.2c2.8-14.7,6.5-29.3,11-43.7c18.3-58.2,50.6-113,96.7-159.2   c76.3-76.3,176.1-114.5,276.1-114.8c0.8,0,1.5,0,2.2,0c100,0.3,199.8,38.5,276.1,114.8c46.2,46.1,78.4,101,96.7,159.2   c0,0.1,0.1,0.2,0.1,0.3C910,471.3,910,553.8,885.9,630.4z" id="XMLID_373_"/><path class="st0" d="M510.9,904.4c-70.6-80.2-115.9-174.9-135.9-273.7c0-0.1,0-0.2-0.1-0.3   c-15.7-77.7-15.7-158-0.1-235.7c0-0.1,0-0.2,0.1-0.3c20-98.9,65.3-193.7,136-274" id="XMLID_405_"/><line class="st0" id="XMLID_408_" x1="138" x2="886" y1="395" y2="395"/><line class="st0" id="XMLID_407_" x1="886" x2="138" y1="631" y2="631"/><path class="st0" d="M513.1,120.4c70.7,80.3,116,175.1,136,274c0,0.1,0,0.2,0.1,0.3c15.6,77.7,15.6,158-0.1,235.7   c0,0.1,0,0.2-0.1,0.3c-20,98.8-65.3,193.5-135.9,273.7c-0.4,0.4-0.7,0.8-1.1,1.3" id="XMLID_404_"/></g></svg>