<?xml version="1.0" ?><svg height="24px" version="1.1" viewBox="0 0 24 24" width="24px" xmlns="http://www.w3.org/2000/svg" xmlns:xlink="http://www.w3.org/1999/xlink"><title/><desc/><g fill="none" fill-rule="evenodd" id="download" stroke="none" stroke-width="1"><path d="M11.2437,13.5858267 L11.2437,4 C11.2437,3.44771525 11.6914153,3 12.2437,3 C12.7959847,3 13.2437,3.44771525 13.2437,4 L13.2437,13.5857864 L15.7791932,11.0502932 C16.1697175,10.6597689 16.8028825,10.6597689 17.1934068,11.0502932 C17.5839311,11.4408175 17.5839311,12.0739825 17.1934068,12.4645068 L12.9508068,16.7071068 C12.5602857,17.0976278 11.9271272,17.0976315 11.5366016,16.7071151 L7.29390155,12.4645151 C6.90337266,12.0739954 6.9033652,11.4408304 7.29388489,11.0503016 C7.68440457,10.6597727 8.31756955,10.6597652 8.70809845,11.0502849 L11.2437,13.5858267 Z M2,14 C2,13.4477153 2.44771525,13 3,13 C3.55228475,13 4,13.4477153 4,14 C4,14.9756589 4.0005073,17.387168 4.001,18 C4.001,18.5515153 4.44948475,19 5.001,19 L19.001,19 C19.552573,19 20.001,18.5515575 20.001,18 L20.001,14 C20.001,13.4477153 20.4487153,13 21.001,13 C21.5532847,13 22.001,13.4477153 22.001,14 L22.001,18 C22.001,19.6561115 20.657158,21 19.001,21 L5.001,21 C3.34491525,21 2.001,19.6560847 2.00100032,18.0008045 C2.00050738,17.3880715 2,14.976184 2,14 Z" fill="#000000" fill-rule="nonzero"/></g></svg>